HIERARCHY
ROOT Hips
{
    OFFSET 0.000000 0.000000 0.000000
    CHANNELS 6 Xposition Yposition Zposition Zrotation Xrotation Yrotation
    JOINT Spine
    {
        OFFSET -0.000001 7.589425 -0.000003
        CHANNELS 3 Zrotation Xrotation Yrotation
        JOINT Spine1
        {
            OFFSET 0.000001 20.705608 0.000005
            CHANNELS 3 Zrotation Xrotation Yrotation
            JOINT Neck
            {
                OFFSET 0.000001 22.671068 0.000008
                CHANNELS 3 Zrotation Xrotation Yrotation
                JOINT Head
                {
                    OFFSET -0.000001 14.202753 1.753903
                    CHANNELS 3 Zrotation Xrotation Yrotation
                    End Site
                    {
                        OFFSET 0.000000 17.539078 0.000000
                    }
                }
            }
            JOINT LeftShoulder
            {
                OFFSET 3.507710 20.072397 0.015149
                CHANNELS 3 Zrotation Xrotation Yrotation
                JOINT LeftArm
                {
                    OFFSET 14.017495 -0.000005 -0.000004
                    CHANNELS 3 Zrotation Xrotation Yrotation
                    JOINT LeftForeArm
                    {
                        OFFSET 28.079792 0.000000 0.000004
                        CHANNELS 3 Zrotation Xrotation Yrotation
                        JOINT LeftHand
                        {
                            OFFSET 26.998001 0.000000 -0.000005
                            CHANNELS 3 Zrotation Xrotation Yrotation
                            JOINT LeftHandThumb1
                            {
                                OFFSET 1.832828 -2.082771 2.915865
                                CHANNELS 3 Zrotation Xrotation Yrotation
                                JOINT LeftHandThumb2
                                {
                                    OFFSET 2.768220 -0.000002 -0.000001
                                    CHANNELS 3 Zrotation Xrotation Yrotation
                                    JOINT LeftHandThumb3
                                    {
                                        OFFSET 2.366021 -0.000001 -0.000001
                                        CHANNELS 3 Zrotation Xrotation Yrotation
                                        End Site
                                        {
                                            OFFSET 2.074890 0.000000 0.000000
                                        }
                                    }
                                }
                            }
                            JOINT LeftHandIndex1
                            {
                                OFFSET 7.497959 0.000002 2.915873
                                CHANNELS 3 Zrotation Xrotation Yrotation
                                JOINT LeftHandIndex2
                                {
                                    OFFSET 4.165532 -0.000003 -0.000004
                                    CHANNELS 3 Zrotation Xrotation Yrotation
                                    JOINT LeftHandIndex3
                                    {
                                        OFFSET 2.082767 -0.000004 -0.000004
                                        CHANNELS 3 Zrotation Xrotation Yrotation
                                        End Site
                                        {
                                            OFFSET 1.826493 0.000000 0.000000
                                        }
                                    }
                                }
                            }
                            JOINT LeftHandMiddle1
                            {
                                OFFSET 7.497960 0.000003 0.966408
                                CHANNELS 3 Zrotation Xrotation Yrotation
                                JOINT LeftHandMiddle2
                                {
                                    OFFSET 4.582080 0.000000 -0.000000
                                    CHANNELS 3 Zrotation Xrotation Yrotation
                                    JOINT LeftHandMiddle3
                                    {
                                        OFFSET 2.499322 0.000002 0.000006
                                        CHANNELS 3 Zrotation Xrotation Yrotation
                                        End Site
                                        {
                                            OFFSET 2.191788 0.000000 0.000000
                                        }
                                    }
                                }
                            }
                            JOINT LeftHandRing1
                            {
                                OFFSET 7.081404 -0.000001 -0.966406
                                CHANNELS 3 Zrotation Xrotation Yrotation
                                JOINT LeftHandRing2
                                {
                                    OFFSET 4.165527 0.000002 -0.000001
                                    CHANNELS 3 Zrotation Xrotation Yrotation
                                    JOINT LeftHandRing3
                                    {
                                        OFFSET 2.082769 -0.000002 -0.000004
                                        CHANNELS 3 Zrotation Xrotation Yrotation
                                        End Site
                                        {
                                            OFFSET 1.826493 0.000000 0.000000
                                        }
                                    }
                                }
                            }
                            JOINT LeftHandPinky1
                            {
                                OFFSET 6.664851 0.000002 -2.915867
                                CHANNELS 3 Zrotation Xrotation Yrotation
                                JOINT LeftHandPinky2
                                {
                                    OFFSET 3.332420 0.000001 -0.000005
                                    CHANNELS 3 Zrotation Xrotation Yrotation
                                    JOINT LeftHandPinky3
                                    {
                                        OFFSET 1.666207 -0.000000 0.000005
                                        CHANNELS 3 Zrotation Xrotation Yrotation
                                        End Site
                                        {
                                            OFFSET 1.461189 0.000000 0.000000
                                        }
                                    }
                                }
                            }
                        }
                    }
                }
            }
            JOINT RightShoulder
            {
                OFFSET -3.507709 20.072401 0.015150
                CHANNELS 3 Zrotation Xrotation Yrotation
                JOINT RightArm
                {
                    OFFSET -14.017495 -0.000001 0.000001
                    CHANNELS 3 Zrotation Xrotation Yrotation
                    JOINT RightForeArm
                    {
                        OFFSET -28.079802 -0.000001 -0.000006
                        CHANNELS 3 Zrotation Xrotation Yrotation
                        JOINT RightHand
                        {
                            OFFSET -26.998001 -0.000001 0.000001
                            CHANNELS 3 Zrotation Xrotation Yrotation
                            JOINT RightHandThumb1
                            {
                                OFFSET -1.832830 -2.082770 2.915869
                                CHANNELS 3 Zrotation Xrotation Yrotation
                                JOINT RightHandThumb2
                                {
                                    OFFSET -2.768218 0.000000 0.000001
                                    CHANNELS 3 Zrotation Xrotation Yrotation
                                    JOINT RightHandThumb3
                                    {
                                        OFFSET -2.366019 0.000002 0.000001
                                        CHANNELS 3 Zrotation Xrotation Yrotation
                                        End Site
                                        {
                                            OFFSET -2.074890 0.000000 0.000000
                                        }
                                    }
                                }
                            }
                            JOINT RightHandIndex1
                            {
                                OFFSET -7.497958 -0.000001 2.915874
                                CHANNELS 3 Zrotation Xrotation Yrotation
                                JOINT RightHandIndex2
                                {
                                    OFFSET -4.165531 -0.000001 -0.000002
                                    CHANNELS 3 Zrotation Xrotation Yrotation
                                    JOINT RightHandIndex3
                                    {
                                        OFFSET -2.082768 0.000003 0.000003
                                        CHANNELS 3 Zrotation Xrotation Yrotation
                                        End Site
                                        {
                                            OFFSET -1.826493 0.000000 0.000000
                                        }
                                    }
                                }
                            }
                            JOINT RightHandMiddle1
                            {
                                OFFSET -7.497960 0.000000 0.966408
                                CHANNELS 3 Zrotation Xrotation Yrotation
                                JOINT RightHandMiddle2
                                {
                                    OFFSET -4.582078 0.000001 0.000001
                                    CHANNELS 3 Zrotation Xrotation Yrotation
                                    JOINT RightHandMiddle3
                                    {
                                        OFFSET -2.499319 0.000000 -0.000000
                                        CHANNELS 3 Zrotation Xrotation Yrotation
                                        End Site
                                        {
                                            OFFSET -2.191788 0.000000 0.000000
                                        }
                                    }
                                }
                            }
                            JOINT RightHandRing1
                            {
                                OFFSET -7.081398 0.000000 -0.966401
                                CHANNELS 3 Zrotation Xrotation Yrotation
                                JOINT RightHandRing2
                                {
                                    OFFSET -4.165531 -0.000001 0.000002
                                    CHANNELS 3 Zrotation Xrotation Yrotation
                                    JOINT RightHandRing3
                                    {
                                        OFFSET -2.082768 -0.000003 -0.000003
                                        CHANNELS 3 Zrotation Xrotation Yrotation
                                        End Site
                                        {
                                            OFFSET -1.826493 0.000000 0.000000
                                        }
                                    }
                                }
                            }
                            JOINT RightHandPinky1
                            {
                                OFFSET -6.664851 0.000001 -2.915867
                                CHANNELS 3 Zrotation Xrotation Yrotation
                                JOINT RightHandPinky2
                                {
                                    OFFSET -3.332419 0.000001 -0.000004
                                    CHANNELS 3 Zrotation Xrotation Yrotation
                                    JOINT RightHandPinky3
                                    {
                                        OFFSET -1.666207 -0.000000 -0.000000
                                        CHANNELS 3 Zrotation Xrotation Yrotation
                                        End Site
                                        {
                                            OFFSET -1.461189 0.000000 0.000000
                                        }
                                    }
                                }
                            }
                        }
                    }
                }
            }
        }
    }
    JOINT LeftUpLeg
    {
        OFFSET 8.769538 0.000000 -0.000003
        CHANNELS 3 Zrotation Xrotation Yrotation
        JOINT LeftLeg
        {
            OFFSET 0.000000 -41.816307 0.000004
            CHANNELS 3 Zrotation Xrotation Yrotation
            JOINT LeftFoot
            {
                OFFSET -0.000000 -40.119503 0.000001
                CHANNELS 3 Zrotation Xrotation Yrotation
                JOINT LeftToeBase
                {
                    OFFSET 0.000001 -5.700201 13.154301
                    CHANNELS 3 Zrotation Xrotation Yrotation
                    End Site
                    {
                        OFFSET 0.000000 0.000000 3.507816
                    }
                }
            }
        }
    }
    JOINT RightUpLeg
    {
        OFFSET -8.769538 -0.000000 0.000003
        CHANNELS 3 Zrotation Xrotation Yrotation
        JOINT RightLeg
        {
            OFFSET 0.000000 -41.816296 -0.000002
            CHANNELS 3 Zrotation Xrotation Yrotation
            JOINT RightFoot
            {
                OFFSET 0.000000 -40.119495 -0.000001
                CHANNELS 3 Zrotation Xrotation Yrotation
                JOINT RightToeBase
                {
                    OFFSET 0.000002 -5.700199 13.154301
                    CHANNELS 3 Zrotation Xrotation Yrotation
                    End Site
                    {
                        OFFSET 0.000000 0.000000 3.507816
                    }
                }
            }
        }
    }
}
MOTION
Frames:    5
Frame Time:    0.004167
13.583636    89.353737    144.732086    -1.435995    -4.352075    176.413361    0.117883    -14.034540    0.486091    -3.925935    6.400872    0.908043    -2.758102    11.900208    0.259311    4.508301    -11.915565    0.622277    2.839732    -5.559178    -0.400964    -61.015064    -8.244775    -17.229696    -4.094010    -3.866732    -46.705769    5.721466    -5.737453    -1.116655    21.899345    46.480438    -61.085804    -22.867790    -4.684810    22.867786    -0.000000    0.000000    -0.000000    -6.022221    17.906979    -15.252701    -5.729497    -0.000005    -0.000008    -5.729493    0.000003    0.000003    -5.729488    0.000001    -8.555281    -5.729488    0.000001    -0.000012    -5.729495    0.000000    -0.000002    -5.729493    0.000003    5.703525    -5.729488    0.000000    -0.000005    -5.729495    0.000007    0.000004    -6.022227    -17.906977    9.549187    -5.729492    -0.000003    -0.000009    -5.729487    0.000004    -0.000003    -3.872205    -1.673112    1.713285    67.810646    -13.693281    20.770271    1.326798    -1.286410    45.892780    -13.580538    -0.266992    5.739420    -21.899334    46.480438    61.085785    22.867794    -4.684811    -22.867783    -0.000000    0.000000    -0.000000    6.022226    17.906981    15.252690    5.729491    -0.000003    -0.000000    5.729490    -0.000005    -0.000003    5.729492    -0.000001    8.555287    5.729481    -0.000001    -0.000021    5.729493    0.000000    0.000001    5.729490    -0.000001    -5.703531    5.729497    0.000000    0.000005    5.729497    0.000000    0.000005    6.022229    -17.906982    -9.549177    5.729491    -0.000003    0.000002    5.729494    0.000003    -0.000002    4.002960    -1.025473    0.445845    -0.000000    3.730235    0.000000    -1.266264    -7.618792    23.503071    -0.000000    0.028802    0.000000    -7.969192    -3.093248    0.963372    -0.000000    6.950405    -0.000000    4.502123    -3.768303    -20.417692    0.000000    -0.808284    0.000003    
13.584530    89.354790    144.730515    -1.439360    -4.331837    176.425644    0.117611    -14.056306    0.484232    -3.932221    6.429672    0.908850    -2.770602    11.923579    0.264489    4.513060    -11.879447    0.621900    2.851903    -5.547148    -0.460926    -61.238636    -8.057576    -17.473457    -4.092084    -3.855537    -46.775043    5.751562    -5.721222    -1.100089    21.899326    46.480522    -61.085953    -22.867786    -4.684810    22.867792    -0.000000    0.000000    -0.000000    -6.022231    17.906975    -15.252800    -5.729497    -0.000002    -0.000000    -5.729489    0.000002    -0.000003    -5.729491    -0.000002    -8.555334    -5.729496    0.000000    -0.000002    -5.729500    0.000004    -0.000003    -5.729488    0.000002    5.703557    -5.729497    0.000000    -0.000002    -5.729491    -0.000007    0.000001    -6.022227    -17.906975    9.549248    -5.729491    -0.000003    -0.000005    -5.729508    -0.000004    0.000010    -3.856057    -1.678186    1.774008    67.988831    -13.489930    20.970556    1.323486    -1.279704    45.970963    -13.614342    -0.256491    5.719875    -21.899323    46.480518    61.085934    22.867790    -4.684813    -22.867798    -0.000000    0.000000    -0.000000    6.022234    17.906975    15.252794    5.729496    -0.000000    -0.000001    5.729498    -0.000001    0.000010    5.729491    -0.000002    8.555335    5.729497    -0.000007    -0.000001    5.729496    0.000004    0.000008    5.729492    -0.000002    -5.703555    5.729494    0.000000    -0.000000    5.729497    -0.000007    -0.000001    6.022229    -17.906977    -9.549253    5.729499    -0.000007    0.000004    5.729492    0.000004    0.000003    3.998549    -1.016682    0.437790    -0.000000    3.750957    0.000000    -1.273185    -7.621699    23.504517    -0.000000    0.023250    0.000003    -7.972382    -3.089298    0.958504    -0.000001    6.994236    -0.000000    4.502997    -3.775492    -20.418215    0.000000    -0.811731    0.000002    
13.586916    89.353355    144.727295    -1.442506    -4.312283    176.440201    0.117112    -14.077947    0.481452    -3.938925    6.456254    0.908673    -2.783020    11.952438    0.270120    4.518746    -11.841778    0.621781    2.859945    -5.539581    -0.520991    -61.472187    -7.863907    -17.722256    -4.091984    -3.846160    -46.843838    5.782305    -5.708260    -1.089681    21.899311    46.480598    -61.086052    -22.867786    -4.684808    22.867786    -0.000000    0.000000    -0.000000    -6.022239    17.906981    -15.252914    -5.729494    -0.000004    0.000004    -5.729491    -0.000004    0.000003    -5.729491    -0.000000    -8.555381    -5.729497    0.000003    -0.000002    -5.729495    -0.000003    -0.000000    -5.729498    0.000002    5.703600    -5.729491    0.000000    -0.000009    -5.729488    0.000003    0.000007    -6.022233    -17.906971    9.549322    -5.729495    -0.000007    -0.000002    -5.729491    0.000007    0.000004    -3.829577    -1.688563    1.833505    68.168243    -13.285121    21.176308    1.324303    -1.277390    46.040302    -13.641489    -0.254963    5.711340    -21.899307    46.480579    61.086052    22.867786    -4.684809    -22.867783    -0.000000    0.000000    -0.000000    6.022223    17.906965    15.252907    5.729497    0.000004    0.000008    5.729498    0.000000    0.000004    5.729494    0.000004    8.555385    5.729495    -0.000003    0.000008    5.729496    0.000004    0.000005    5.729491    -0.000000    -5.703588    5.729499    -0.000000    -0.000003    5.729493    -0.000000    -0.000005    6.022230    -17.906979    -9.549314    5.729491    0.000004    0.000003    5.729495    -0.000003    0.000002    3.994527    -1.007249    0.432092    0.000000    3.767997    -0.000000    -1.285863    -7.625033    23.501455    0.000000    0.016986    -0.000004    -7.975564    -3.083794    0.950262    -0.000000    7.034885    -0.000000    4.503555    -3.781935    -20.414503    -0.000000    -0.814453    -0.000000    
13.588158    89.353683    144.722336    -1.445094    -4.292391    176.451935    0.116055    -14.101156    0.476337    -3.946069    6.479825    0.906090    -2.792106    11.985244    0.275994    4.525852    -11.802588    0.622559    2.869618    -5.531283    -0.568525    -61.701458    -7.674502    -17.962311    -4.076083    -3.822825    -46.905846    5.805273    -5.672988    -1.066572    21.899305    46.480675    -61.086208    -22.867783    -4.684816    22.867798    -0.000000    0.000000    -0.000000    -6.022212    17.906977    -15.253016    -5.729503    0.000002    -0.000010    -5.729492    0.000001    0.000004    -5.729492    -0.000007    -8.555447    -5.729488    0.000007    0.000005    -5.729491    0.000000    -0.000002    -5.729491    -0.000005    5.703624    -5.729494    -0.000000    0.000005    -5.729494    -0.000003    -0.000005    -6.022227    -17.906975    9.549388    -5.729496    -0.000007    0.000003    -5.729483    -0.000006    -0.000011    -3.780226    -1.710592    1.876119    68.374840    -13.093618    21.388666    1.316755    -1.267292    46.103962    -13.660971    -0.238825    5.691095    -21.899305    46.480679    61.086201    22.867790    -4.684812    -22.867802    -0.000000    0.000000    -0.000000    6.022220    17.906975    15.253013    5.729496    0.000003    -0.000002    5.729497    0.000002    0.000005    5.729498    0.000007    8.555444    5.729482    -0.000004    -0.000005    5.729493    0.000000    0.000002    5.729490    -0.000002    -5.703627    5.729494    -0.000003    0.000000    5.729492    0.000003    0.000002    6.022226    -17.906986    -9.549389    5.729489    0.000007    -0.000004    5.729496    -0.000003    0.000002    3.992401    -0.998963    0.418192    0.000000    3.791916    -0.000000    -1.292483    -7.637137    23.495502    -0.000000    0.009576    -0.000004    -7.979306    -3.076714    0.941139    0.000001    7.071246    0.000000    4.508484    -3.790730    -20.414042    -0.000000    -0.807847    -0.000001    
13.590293    89.352867    144.716827    -1.448107    -4.272859    176.463562    0.115466    -14.122799    0.473210    -3.953526    6.503763    0.905498    -2.801569    12.015108    0.283587    4.530409    -11.766372    0.624819    2.878873    -5.525558    -0.620114    -61.934292    -7.476257    -18.208435    -4.058567    -3.797801    -46.969856    5.824605    -5.636109    -1.049938    21.899267    46.480732    -61.086288    -22.867785    -4.684815    22.867792    -0.000000    0.000000    -0.000000    -6.022236    17.906977    -15.253105    -5.729494    0.000001    0.000008    -5.729499    0.000002    -0.000002    -5.729491    0.000004    -8.555471    -5.729497    -0.000007    -0.000005    -5.729493    -0.000004    0.000003    -5.729496    0.000003    5.703667    -5.729491    -0.000006    -0.000007    -5.729492    0.000003    0.000005    -6.022226    -17.906971    9.549456    -5.729499    0.000000    -0.000002    -5.729498    -0.000021    0.000002    -3.732176    -1.736385    1.925565    68.580635    -12.901697    21.607510    1.312040    -1.261403    46.134628    -13.679862    -0.234228    5.696923    -21.899281    46.480736    61.086296    22.867785    -4.684808    -22.867783    -0.000000    0.000000    -0.000000    6.022239    17.906973    15.253107    5.729496    -0.000000    -0.000006    5.729493    0.000002    -0.000001    5.729497    -0.000001    8.555487    5.729493    0.000003    -0.000010    5.729498    -0.000003    0.000008    5.729492    -0.000001    -5.703667    5.729498    0.000004    0.000005    5.729490    -0.000004    -0.000007    6.022233    -17.906988    -9.549452    5.729494    -0.000000    -0.000003    5.729490    -0.000000    -0.000002    3.989408    -0.992390    0.409246    0.000000    3.821858    -0.000000    -1.299706    -7.643288    23.492029    -0.000000    0.003448    0.000001    -7.981461    -3.067784    0.931483    -0.000000    7.105851    0.000000    4.513988    -3.803354    -20.410799    0.000000    -0.805067    0.000001    
